<svg width="222" height="51" viewBox="0 0 222 51" fill="none" xmlns="http://www.w3.org/2000/svg">
<g clip-path="url(#clip0_1_184)">
<path d="M44.4299 28.7592L36.5092 29.1488C46.5952 28.2464 43.6478 21.8302 43.6478 21.8302L34.9213 24.8642C44.8827 21.4202 40.149 15.8031 40.149 15.8031L34.1113 20.6678C40.5258 15.3384 35.9092 11.2111 35.9092 11.2111L31.2577 17.5661C32.3692 16.0491 33.3159 13.2201 33.3159 13.2201C34.7566 8.99713 30.5168 6.08612 30.5168 6.08612C30.1052 8.83314 27.018 15.1061 27.018 15.1061C27.018 15.1061 28.8291 11.1701 28.4587 7.15212C28.0882 3.13413 23.1201 0.756119 23.1201 0.756119L23.3545 17.9352C23.6018 18.0583 23.8425 18.1959 24.0808 18.3353C25.2395 19.0133 26.3602 19.809 27.2861 20.7846C28.4027 21.9612 28.8231 23.3918 28.7222 24.9981C28.697 25.3999 28.6438 25.8055 28.4908 26.1781C28.0804 27.1774 26.8211 27.7858 25.7832 27.5702C24.318 27.2657 24.4789 24.9461 24.4789 24.9461C24.4789 24.9461 24.4884 21.8457 25.1603 21.3555H20.0593C20.0593 21.3555 17.5704 22.0059 18.6398 24.4285C18.6279 24.4015 18.9423 24.2135 18.9653 24.2C19.1936 24.0659 19.4507 23.9611 19.718 23.9465C19.9771 23.9324 20.2291 24.0246 20.4235 24.1947C20.6872 24.4256 20.8689 24.757 20.8795 25.11C20.8859 25.3243 20.8334 25.5338 20.7943 25.743C20.7564 25.9459 20.6957 26.1381 20.6169 26.3298C20.4647 26.7002 20.232 27.0441 19.9006 27.2775C19.6897 27.4261 19.4495 27.5199 19.197 27.5702C18.1554 27.7678 16.8997 27.1774 16.4894 26.1781C16.3364 25.8055 16.2832 25.3999 16.258 24.9981C16.157 23.3918 16.5775 21.9612 17.6941 20.7846C18.62 19.809 19.7406 19.0134 20.8994 18.3354C21.1377 18.196 21.3784 18.0584 21.6257 17.9352L21.8601 0.756177C21.8601 0.756177 16.892 3.13419 16.5215 7.15221C16.151 11.1702 17.9622 15.1062 17.9622 15.1062C17.9622 15.1062 14.8749 8.83314 14.4633 6.08612C14.4633 6.08612 10.2235 8.99713 11.6642 13.2201C11.6642 13.2201 12.6109 16.0491 13.7223 17.5661L9.07091 11.2111C9.07091 11.2111 4.45426 15.3384 10.8688 20.6678L4.83112 15.8031C4.83112 15.8031 0.0973788 21.4202 10.0588 24.8642L1.33226 21.8302C1.33226 21.8302 -1.61515 28.2464 8.47087 29.1488L0.550164 28.7592C0.550164 28.7592 0.26202 36.6722 12.2816 32.9412L4.00786 35.4832C4.00786 35.4832 8.90624 40.4442 15.8628 35.4832L13.0637 38.2302C13.0637 38.2302 17.2624 38.7632 19.8968 36.1802C19.8968 36.1802 19.3205 40.8542 13.8458 46.6352C13.8458 46.6352 17.7563 47.4142 19.6498 44.7902C19.6498 44.7902 19.691 45.7332 19.4028 46.2662C19.4028 46.2662 19.8556 46.7433 22.4901 46.7433C25.1245 46.7433 25.5773 46.2662 25.5773 46.2662C25.2891 45.7332 25.3303 44.7902 25.3303 44.7902C27.2238 47.4142 31.1343 46.6352 31.1343 46.6352C25.6596 40.8542 25.0833 36.1802 25.0833 36.1802C27.7177 38.7632 31.9164 38.2302 31.9164 38.2302L29.1173 35.4832C36.0739 40.4442 40.9722 35.4832 40.9722 35.4832L32.6985 32.9412C44.7181 36.6722 44.4299 28.7592 44.4299 28.7592Z" fill="#3197BC"/>
</g>
<path d="M60.008 24V1.6H69.224C71.208 1.6 72.904 1.92 74.312 2.56C75.7413 3.2 76.84 4.11733 77.608 5.312C78.376 6.50667 78.76 7.92533 78.76 9.568C78.76 11.2107 78.376 12.6293 77.608 13.824C76.84 15.0187 75.7413 15.936 74.312 16.576C72.904 17.216 71.208 17.536 69.224 17.536H62.312L64.168 15.584V24H60.008ZM64.168 16.032L62.312 14.016H69.032C70.8667 14.016 72.2427 13.632 73.16 12.864C74.0987 12.0747 74.568 10.976 74.568 9.568C74.568 8.13867 74.0987 7.04 73.16 6.272C72.2427 5.504 70.8667 5.12 69.032 5.12H62.312L64.168 3.072V16.032ZM90.1478 24.224C88.3984 24.224 86.8411 23.8507 85.4758 23.104C84.1104 22.336 83.0331 21.2907 82.2438 19.968C81.4544 18.6453 81.0598 17.1413 81.0598 15.456C81.0598 13.7493 81.4544 12.2453 82.2438 10.944C83.0331 9.62133 84.1104 8.58667 85.4758 7.84C86.8411 7.09333 88.3984 6.72 90.1478 6.72C91.9184 6.72 93.4864 7.09333 94.8518 7.84C96.2384 8.58667 97.3158 9.61067 98.0838 10.912C98.8731 12.2133 99.2678 13.728 99.2678 15.456C99.2678 17.1413 98.8731 18.6453 98.0838 19.968C97.3158 21.2907 96.2384 22.336 94.8518 23.104C93.4864 23.8507 91.9184 24.224 90.1478 24.224ZM90.1478 20.8C91.1291 20.8 92.0038 20.5867 92.7718 20.16C93.5398 19.7333 94.1371 19.1147 94.5638 18.304C95.0118 17.4933 95.2358 16.544 95.2358 15.456C95.2358 14.3467 95.0118 13.3973 94.5638 12.608C94.1371 11.7973 93.5398 11.1787 92.7718 10.752C92.0038 10.3253 91.1398 10.112 90.1798 10.112C89.1984 10.112 88.3238 10.3253 87.5558 10.752C86.8091 11.1787 86.2118 11.7973 85.7638 12.608C85.3158 13.3973 85.0918 14.3467 85.0918 15.456C85.0918 16.544 85.3158 17.4933 85.7638 18.304C86.2118 19.1147 86.8091 19.7333 87.5558 20.16C88.3238 20.5867 89.1878 20.8 90.1478 20.8ZM106.357 20.192L106.453 15.168L115.381 6.912H120.181L112.597 14.528L110.485 16.288L106.357 20.192ZM103.093 24V0.255999H107.093V24H103.093ZM115.989 24L109.749 16.288L112.277 13.088L120.853 24H115.989ZM130.781 24.224C128.882 24.224 127.218 23.8507 125.789 23.104C124.381 22.336 123.282 21.2907 122.493 19.968C121.725 18.6453 121.341 17.1413 121.341 15.456C121.341 13.7493 121.714 12.2453 122.461 10.944C123.229 9.62133 124.274 8.58667 125.597 7.84C126.941 7.09333 128.466 6.72 130.173 6.72C131.837 6.72 133.32 7.08267 134.621 7.808C135.922 8.53333 136.946 9.55733 137.693 10.88C138.44 12.2027 138.813 13.76 138.813 15.552C138.813 15.7227 138.802 15.9147 138.781 16.128C138.781 16.3413 138.77 16.544 138.749 16.736H124.509V14.08H136.637L135.069 14.912C135.09 13.9307 134.888 13.0667 134.461 12.32C134.034 11.5733 133.448 10.9867 132.701 10.56C131.976 10.1333 131.133 9.92 130.173 9.92C129.192 9.92 128.328 10.1333 127.581 10.56C126.856 10.9867 126.28 11.584 125.853 12.352C125.448 13.0987 125.245 13.984 125.245 15.008V15.648C125.245 16.672 125.48 17.5787 125.949 18.368C126.418 19.1573 127.08 19.7653 127.933 20.192C128.786 20.6187 129.768 20.832 130.877 20.832C131.837 20.832 132.701 20.6827 133.469 20.384C134.237 20.0853 134.92 19.616 135.517 18.976L137.661 21.44C136.893 22.336 135.922 23.0293 134.749 23.52C133.597 23.9893 132.274 24.224 130.781 24.224ZM142.655 24V6.912H146.463V11.616L146.015 10.24C146.527 9.088 147.327 8.21333 148.415 7.616C149.525 7.01867 150.901 6.72 152.543 6.72V10.528C152.373 10.4853 152.213 10.464 152.063 10.464C151.914 10.4427 151.765 10.432 151.615 10.432C150.101 10.432 148.895 10.88 147.999 11.776C147.103 12.6507 146.655 13.9627 146.655 15.712V24H142.655Z" fill="#3197BC"/>
<path d="M59.052 46V33.4H63.768C64.836 33.4 65.754 33.574 66.522 33.922C67.29 34.258 67.878 34.75 68.286 35.398C68.706 36.034 68.916 36.808 68.916 37.72C68.916 38.608 68.706 39.376 68.286 40.024C67.878 40.66 67.29 41.152 66.522 41.5C65.754 41.848 64.836 42.022 63.768 42.022H59.79L60.384 41.392V46H59.052ZM60.384 41.5L59.79 40.852H63.732C64.992 40.852 65.946 40.582 66.594 40.042C67.254 39.49 67.584 38.716 67.584 37.72C67.584 36.712 67.254 35.932 66.594 35.38C65.946 34.828 64.992 34.552 63.732 34.552H59.79L60.384 33.922V41.5ZM71.7019 46V32.644H72.9799V46H71.7019ZM82.4579 46V43.912L82.4039 43.57V40.078C82.4039 39.274 82.1759 38.656 81.7199 38.224C81.2759 37.792 80.6099 37.576 79.7219 37.576C79.1099 37.576 78.5279 37.678 77.9759 37.882C77.4239 38.086 76.9559 38.356 76.5719 38.692L75.9959 37.738C76.4759 37.33 77.0519 37.018 77.7239 36.802C78.3959 36.574 79.1039 36.46 79.8479 36.46C81.0719 36.46 82.0139 36.766 82.6739 37.378C83.3459 37.978 83.6819 38.896 83.6819 40.132V46H82.4579ZM79.1999 46.09C78.4919 46.09 77.8739 45.976 77.3459 45.748C76.8299 45.508 76.4339 45.184 76.1579 44.776C75.8819 44.356 75.7439 43.876 75.7439 43.336C75.7439 42.844 75.8579 42.4 76.0859 42.004C76.3259 41.596 76.7099 41.272 77.2379 41.032C77.7779 40.78 78.4979 40.654 79.3979 40.654H82.6559V41.608H79.4339C78.5219 41.608 77.8859 41.77 77.5259 42.094C77.1779 42.418 77.0039 42.82 77.0039 43.3C77.0039 43.84 77.2139 44.272 77.6339 44.596C78.0539 44.92 78.6419 45.082 79.3979 45.082C80.1179 45.082 80.7359 44.92 81.2519 44.596C81.7799 44.26 82.1639 43.78 82.4039 43.156L82.6919 44.038C82.4519 44.662 82.0319 45.16 81.4319 45.532C80.8439 45.904 80.0999 46.09 79.1999 46.09ZM91.9771 36.46C92.7451 36.46 93.4171 36.61 93.9931 36.91C94.5811 37.198 95.0371 37.642 95.3611 38.242C95.6971 38.842 95.8651 39.598 95.8651 40.51V46H94.5871V40.636C94.5871 39.64 94.3351 38.89 93.8311 38.386C93.3391 37.87 92.6431 37.612 91.7431 37.612C91.0711 37.612 90.4831 37.75 89.9791 38.026C89.4871 38.29 89.1031 38.68 88.8271 39.196C88.5631 39.7 88.4311 40.312 88.4311 41.032V46H87.1531V36.55H88.3771V39.142L88.1791 38.656C88.4791 37.972 88.9591 37.438 89.6191 37.054C90.2791 36.658 91.0651 36.46 91.9771 36.46ZM104.141 36.46C104.909 36.46 105.581 36.61 106.157 36.91C106.745 37.198 107.201 37.642 107.525 38.242C107.861 38.842 108.029 39.598 108.029 40.51V46H106.751V40.636C106.751 39.64 106.499 38.89 105.995 38.386C105.503 37.87 104.807 37.612 103.907 37.612C103.235 37.612 102.647 37.75 102.143 38.026C101.651 38.29 101.267 38.68 100.991 39.196C100.727 39.7 100.595 40.312 100.595 41.032V46H99.3172V36.55H100.541V39.142L100.343 38.656C100.643 37.972 101.123 37.438 101.783 37.054C102.443 36.658 103.229 36.46 104.141 36.46ZM111.481 46V36.55H112.759V46H111.481ZM112.129 34.462C111.865 34.462 111.643 34.372 111.463 34.192C111.283 34.012 111.193 33.796 111.193 33.544C111.193 33.292 111.283 33.082 111.463 32.914C111.643 32.734 111.865 32.644 112.129 32.644C112.393 32.644 112.615 32.728 112.795 32.896C112.975 33.064 113.065 33.274 113.065 33.526C113.065 33.79 112.975 34.012 112.795 34.192C112.627 34.372 112.405 34.462 112.129 34.462ZM121.139 36.46C121.907 36.46 122.579 36.61 123.155 36.91C123.743 37.198 124.199 37.642 124.523 38.242C124.859 38.842 125.027 39.598 125.027 40.51V46H123.749V40.636C123.749 39.64 123.497 38.89 122.993 38.386C122.501 37.87 121.805 37.612 120.905 37.612C120.233 37.612 119.645 37.75 119.141 38.026C118.649 38.29 118.265 38.68 117.989 39.196C117.725 39.7 117.593 40.312 117.593 41.032V46H116.315V36.55H117.539V39.142L117.341 38.656C117.641 37.972 118.121 37.438 118.781 37.054C119.441 36.658 120.227 36.46 121.139 36.46ZM132.511 49.582C131.647 49.582 130.819 49.456 130.027 49.204C129.235 48.952 128.593 48.592 128.101 48.124L128.749 47.152C129.193 47.548 129.739 47.86 130.387 48.088C131.047 48.328 131.743 48.448 132.475 48.448C133.675 48.448 134.557 48.166 135.121 47.602C135.685 47.05 135.967 46.186 135.967 45.01V42.652L136.147 41.032L136.021 39.412V36.55H137.245V44.848C137.245 46.48 136.843 47.674 136.039 48.43C135.247 49.198 134.071 49.582 132.511 49.582ZM132.277 45.64C131.377 45.64 130.567 45.448 129.847 45.064C129.127 44.668 128.557 44.122 128.137 43.426C127.729 42.73 127.525 41.932 127.525 41.032C127.525 40.132 127.729 39.34 128.137 38.656C128.557 37.96 129.127 37.42 129.847 37.036C130.567 36.652 131.377 36.46 132.277 36.46C133.117 36.46 133.873 36.634 134.545 36.982C135.217 37.33 135.751 37.846 136.147 38.53C136.543 39.214 136.741 40.048 136.741 41.032C136.741 42.016 136.543 42.85 136.147 43.534C135.751 44.218 135.217 44.74 134.545 45.1C133.873 45.46 133.117 45.64 132.277 45.64ZM132.403 44.506C133.099 44.506 133.717 44.362 134.257 44.074C134.797 43.774 135.223 43.366 135.535 42.85C135.847 42.322 136.003 41.716 136.003 41.032C136.003 40.348 135.847 39.748 135.535 39.232C135.223 38.716 134.797 38.314 134.257 38.026C133.717 37.726 133.099 37.576 132.403 37.576C131.719 37.576 131.101 37.726 130.549 38.026C130.009 38.314 129.583 38.716 129.271 39.232C128.971 39.748 128.821 40.348 128.821 41.032C128.821 41.716 128.971 42.322 129.271 42.85C129.583 43.366 130.009 43.774 130.549 44.074C131.101 44.362 131.719 44.506 132.403 44.506Z" fill="#2B2B2B"/>
<defs>
<clipPath id="clip0_1_184">
<rect width="45" height="47" fill="white"/>
</clipPath>
</defs>
</svg>
