<svg width="175" height="47" viewBox="0 0 175 47" fill="none" xmlns="http://www.w3.org/2000/svg">
<g clip-path="url(#clip0_1_270)">
<path d="M44.4299 28.7592L36.5092 29.1488C46.5952 28.2464 43.6478 21.8302 43.6478 21.8302L34.9213 24.8642C44.8827 21.4202 40.149 15.8031 40.149 15.8031L34.1113 20.6678C40.5258 15.3384 35.9092 11.2111 35.9092 11.2111L31.2577 17.5661C32.3692 16.0491 33.3159 13.2201 33.3159 13.2201C34.7566 8.99713 30.5168 6.08612 30.5168 6.08612C30.1052 8.83314 27.018 15.1061 27.018 15.1061C27.018 15.1061 28.8291 11.1701 28.4587 7.15212C28.0882 3.13413 23.1201 0.756119 23.1201 0.756119L23.3545 17.9352C23.6018 18.0583 23.8425 18.1959 24.0808 18.3353C25.2395 19.0133 26.3602 19.809 27.2861 20.7846C28.4027 21.9612 28.8231 23.3918 28.7222 24.9981C28.697 25.3999 28.6438 25.8055 28.4908 26.1781C28.0804 27.1774 26.8211 27.7858 25.7832 27.5702C24.318 27.2657 24.4789 24.9461 24.4789 24.9461C24.4789 24.9461 24.4884 21.8457 25.1603 21.3555H20.0593C20.0593 21.3555 17.5704 22.0059 18.6398 24.4285C18.6279 24.4015 18.9423 24.2135 18.9653 24.2C19.1936 24.0659 19.4507 23.9611 19.718 23.9465C19.9771 23.9324 20.2291 24.0246 20.4235 24.1947C20.6872 24.4256 20.8689 24.757 20.8795 25.11C20.8859 25.3243 20.8334 25.5338 20.7943 25.743C20.7564 25.9459 20.6957 26.1381 20.6169 26.3298C20.4647 26.7002 20.232 27.0441 19.9006 27.2775C19.6897 27.4261 19.4495 27.5199 19.197 27.5702C18.1554 27.7678 16.8997 27.1774 16.4894 26.1781C16.3364 25.8055 16.2832 25.3999 16.258 24.9981C16.157 23.3918 16.5775 21.9612 17.6941 20.7846C18.62 19.809 19.7406 19.0134 20.8994 18.3354C21.1377 18.196 21.3784 18.0584 21.6257 17.9352L21.8601 0.756177C21.8601 0.756177 16.892 3.13419 16.5215 7.15221C16.151 11.1702 17.9622 15.1062 17.9622 15.1062C17.9622 15.1062 14.8749 8.83314 14.4633 6.08612C14.4633 6.08612 10.2235 8.99713 11.6642 13.2201C11.6642 13.2201 12.6109 16.0491 13.7223 17.5661L9.07091 11.2111C9.07091 11.2111 4.45426 15.3384 10.8688 20.6678L4.83112 15.8031C4.83112 15.8031 0.0973788 21.4202 10.0588 24.8642L1.33226 21.8302C1.33226 21.8302 -1.61515 28.2464 8.47087 29.1488L0.550164 28.7592C0.550164 28.7592 0.26202 36.6722 12.2816 32.9412L4.00786 35.4832C4.00786 35.4832 8.90624 40.4442 15.8628 35.4832L13.0637 38.2302C13.0637 38.2302 17.2624 38.7632 19.8968 36.1802C19.8968 36.1802 19.3205 40.8542 13.8458 46.6352C13.8458 46.6352 17.7563 47.4142 19.6498 44.7902C19.6498 44.7902 19.691 45.7332 19.4028 46.2662C19.4028 46.2662 19.8556 46.7433 22.4901 46.7433C25.1245 46.7433 25.5773 46.2662 25.5773 46.2662C25.2891 45.7332 25.3303 44.7902 25.3303 44.7902C27.2238 47.4142 31.1343 46.6352 31.1343 46.6352C25.6596 40.8542 25.0833 36.1802 25.0833 36.1802C27.7177 38.7632 31.9164 38.2302 31.9164 38.2302L29.1173 35.4832C36.0739 40.4442 40.9722 35.4832 40.9722 35.4832L32.6985 32.9412C44.7181 36.6722 44.4299 28.7592 44.4299 28.7592Z" fill="#3197BC"/>
</g>
<path d="M62.472 31V17.368H57.096V14.2H71.736V17.368H66.36V31H62.472ZM73.2827 31V18.088H76.8587V21.736L76.3547 20.68C76.7387 19.768 77.3547 19.08 78.2027 18.616C79.0507 18.136 80.0827 17.896 81.2987 17.896V21.352C81.1387 21.336 80.9947 21.328 80.8667 21.328C80.7387 21.312 80.6027 21.304 80.4587 21.304C79.4347 21.304 78.6027 21.6 77.9627 22.192C77.3387 22.768 77.0267 23.672 77.0267 24.904V31H73.2827ZM89.0666 31.192C87.9946 31.192 87.0346 30.984 86.1866 30.568C85.3546 30.152 84.7066 29.52 84.2426 28.672C83.7786 27.808 83.5466 26.712 83.5466 25.384V18.088H87.2906V24.832C87.2906 25.904 87.5146 26.696 87.9626 27.208C88.4266 27.704 89.0746 27.952 89.9066 27.952C90.4826 27.952 90.9946 27.832 91.4426 27.592C91.8906 27.336 92.2426 26.952 92.4986 26.44C92.7546 25.912 92.8826 25.256 92.8826 24.472V18.088H96.6266V31H93.0746V27.448L93.7226 28.48C93.2906 29.376 92.6506 30.056 91.8026 30.52C90.9706 30.968 90.0586 31.192 89.0666 31.192ZM110.636 31V17.368H105.26V14.2H119.9V17.368H114.524V31H110.636ZM126.824 31.192C125.352 31.192 124.056 30.904 122.936 30.328C121.832 29.752 120.976 28.968 120.368 27.976C119.76 26.968 119.456 25.824 119.456 24.544C119.456 23.248 119.752 22.104 120.344 21.112C120.952 20.104 121.776 19.32 122.816 18.76C123.856 18.184 125.032 17.896 126.344 17.896C127.608 17.896 128.744 18.168 129.752 18.712C130.776 19.24 131.584 20.008 132.176 21.016C132.768 22.008 133.064 23.2 133.064 24.592C133.064 24.736 133.056 24.904 133.04 25.096C133.024 25.272 133.008 25.44 132.992 25.6H122.504V23.416H131.023L129.584 24.064C129.584 23.392 129.448 22.808 129.176 22.312C128.904 21.816 128.528 21.432 128.048 21.16C127.568 20.872 127.008 20.728 126.368 20.728C125.728 20.728 125.16 20.872 124.664 21.16C124.184 21.432 123.808 21.824 123.536 22.336C123.264 22.832 123.128 23.424 123.128 24.112V24.688C123.128 25.392 123.28 26.016 123.584 26.56C123.904 27.088 124.344 27.496 124.904 27.784C125.48 28.056 126.152 28.192 126.92 28.192C127.608 28.192 128.208 28.088 128.72 27.88C129.248 27.672 129.728 27.36 130.16 26.944L132.152 29.104C131.56 29.776 130.816 30.296 129.92 30.664C129.024 31.016 127.992 31.192 126.824 31.192ZM143.125 31V28.48L142.885 27.928V23.416C142.885 22.616 142.637 21.992 142.141 21.544C141.661 21.096 140.917 20.872 139.909 20.872C139.221 20.872 138.541 20.984 137.869 21.208C137.213 21.416 136.653 21.704 136.189 22.072L134.845 19.456C135.549 18.96 136.397 18.576 137.389 18.304C138.381 18.032 139.389 17.896 140.413 17.896C142.381 17.896 143.909 18.36 144.997 19.288C146.085 20.216 146.629 21.664 146.629 23.632V31H143.125ZM139.189 31.192C138.181 31.192 137.317 31.024 136.597 30.688C135.877 30.336 135.325 29.864 134.941 29.272C134.557 28.68 134.365 28.016 134.365 27.28C134.365 26.512 134.549 25.84 134.917 25.264C135.301 24.688 135.901 24.24 136.717 23.92C137.533 23.584 138.597 23.416 139.909 23.416H143.341V25.6H140.317C139.437 25.6 138.829 25.744 138.493 26.032C138.173 26.32 138.013 26.68 138.013 27.112C138.013 27.592 138.197 27.976 138.565 28.264C138.949 28.536 139.469 28.672 140.125 28.672C140.749 28.672 141.309 28.528 141.805 28.24C142.301 27.936 142.661 27.496 142.885 26.92L143.461 28.648C143.189 29.48 142.693 30.112 141.973 30.544C141.253 30.976 140.325 31.192 139.189 31.192ZM166.553 17.896C167.577 17.896 168.481 18.104 169.265 18.52C170.065 18.92 170.689 19.544 171.137 20.392C171.601 21.224 171.833 22.296 171.833 23.608V31H168.089V24.184C168.089 23.144 167.873 22.376 167.441 21.88C167.009 21.384 166.401 21.136 165.617 21.136C165.073 21.136 164.585 21.264 164.153 21.52C163.721 21.76 163.385 22.128 163.145 22.624C162.905 23.12 162.785 23.752 162.785 24.52V31H159.041V24.184C159.041 23.144 158.825 22.376 158.393 21.88C157.977 21.384 157.377 21.136 156.593 21.136C156.049 21.136 155.561 21.264 155.129 21.52C154.697 21.76 154.361 22.128 154.121 22.624C153.881 23.12 153.761 23.752 153.761 24.52V31H150.017V18.088H153.593V21.616L152.921 20.584C153.369 19.704 154.001 19.04 154.817 18.592C155.649 18.128 156.593 17.896 157.649 17.896C158.833 17.896 159.865 18.2 160.745 18.808C161.641 19.4 162.233 20.312 162.521 21.544L161.201 21.184C161.633 20.176 162.321 19.376 163.265 18.784C164.225 18.192 165.321 17.896 166.553 17.896Z" fill="#2B2B2B"/>
<defs>
<clipPath id="clip0_1_270">
<rect width="45" height="47" fill="white"/>
</clipPath>
</defs>
</svg>
